<?xml version="1.0" encoding="utf-8"?>
<!DOCTYPE svg PUBLIC "-//W3C//DTD SVG 1.1//EN" "http://www.w3.org/Graphics/SVG/1.1/DTD/svg11.dtd">
<svg version="1.1" id="Ebene_1" xmlns="http://www.w3.org/2000/svg" xmlns:xlink="http://www.w3.org/1999/xlink" x="0px" y="0px"
	 width="298.403px" height="60.988px" viewBox="149.480 150.855 298.403 60.988" enable-background="new 0 0 595.28 419.53" xml:space="preserve">
<g>
	<circle fill="#6C8399" cx="427.019" cy="171.72" r="8.805"/>
	<!-- spike at 315 -->
	<path fill="#00975F" d="M426.62,157.543c-10.051-5.651-20.466-6.37-20.466-6.37s0.877,10.396,6.677,20.356
		C412.933,163.911,419.029,157.754,426.62,157.543z"/>
	<!-- spike at 135 -->
	<path fill="#00975F" d="M427.415,185.896c10.051,5.653,20.468,6.37,20.468,6.37s-0.878-10.396-6.677-20.355
		C441.104,179.53,435.007,185.687,427.415,185.896z"/>
	<!-- spike at 45 -->
	<path fill="#00975F" d="M441.195,171.32c5.651-10.051,6.37-20.465,6.37-20.465s-10.397,0.877-20.357,6.677
		C434.826,157.633,440.983,163.729,441.195,171.32z"/>
</g>
<g>
	<!-- B -->
	<path fill="#00975F" d="M149.48,178.392h15.124c6.125,0,10.695,2.686,10.695,8.34c0,4.146-2.121,6.455-5.795,7.68v0.094
		c4.381,0.896,6.643,3.252,6.643,7.256c0,7.869-6.926,9.518-12.814,9.518H149.48V178.392z M158.244,191.396h2.45
		c2.874,0,5.842-0.707,5.842-3.486c0-3.016-2.826-3.299-5.748-3.299h-2.544V191.396z M158.244,205.06h2.591
		c3.204,0,6.549-0.471,6.549-3.816c0-3.582-3.438-3.912-6.454-3.912h-2.686V205.06z"/>
	<!-- U -->
	<path fill="#00975F" d="M209.5,198.792c0,9-5.842,13.051-14.416,13.051c-8.575,0-14.417-4.051-14.417-13.051v-20.4h8.764v18.939
		c0,4.336,1.178,8.01,5.653,8.01c4.477,0,5.654-3.674,5.654-8.01v-18.939h8.762V198.792z"/>
	<!-- S -->
	<path fill="#00975F" d="M215.248,203.175c2.261,1.225,5.417,2.166,9.046,2.166c2.779,0,5.418-0.564,5.418-3.203
		c0-6.125-15.548-2.262-15.548-14.229c0-7.916,7.727-10.082,14.322-10.082c3.156,0,6.267,0.471,8.48,1.225l-0.565,6.783
		c-2.262-1.035-4.806-1.506-7.303-1.506c-2.214,0-5.889,0.188-5.889,3.063c0,5.322,15.547,1.742,15.547,13.615
		c0,8.527-7.161,10.836-14.463,10.836c-3.063,0-6.879-0.471-9.801-1.413L215.248,203.175z"/>
	<!-- M -->
	<path fill="#6C8399" d="M246.511,178.392h10.554l7.821,24.924h0.094l7.821-24.924h10.552v32.887h-6.312V184.14h-0.094
		l-8.858,27.139h-6.313l-8.856-27.139l-0.095,0.094v27.045h-6.313V178.392z"/>
	<!-- A -->
	<path fill="#6C8399" d="M299.573,178.392h7.443l12.91,32.887h-7.303l-2.826-7.538h-13.334l-2.875,7.538h-6.83L299.573,178.392z
		 M303.202,184.988h-0.096l-4.758,13.57h9.611L303.202,184.988z"/>
	<!-- S -->
	<path fill="#6C8399" d="M339.832,184.423c-2.073-0.896-4.382-1.414-6.69-1.414c-2.262,0-5.183,0.99-5.183,4.57
		c0,5.701,14.417,3.299,14.417,14.324c0,7.209-5.701,9.94-12.344,9.94c-3.581,0-5.182-0.471-8.434-1.272l0.613-5.936
		c2.262,1.225,4.853,2.025,7.443,2.025c2.498,0,5.842-1.271,5.842-4.24c0-6.268-14.416-3.676-14.416-14.559
		c0-7.351,5.7-10.035,11.495-10.035c2.827,0,5.466,0.376,7.868,1.178L339.832,184.423z"/>
	<!-- T -->
	<path fill="#6C8399" d="M353.341,183.576h-9.422v-5.184h25.44v5.184h-9.422v27.704h-6.597V183.576z"/>
	<!-- E -->
	<path fill="#6C8399" d="M372.551,178.392h19.411v5.184h-12.814v8.104h11.73v5.182h-11.73v9.236h12.909v5.182h-19.506V178.392z"/>
	<!-- R -->
	<path fill="#6C8399" d="M396.013,178.392h7.114c7.067,0,15.501-0.236,15.501,8.906c0,3.861-2.592,7.066-6.785,7.631v0.094
		c1.791,0.143,2.827,1.932,3.486,3.395l5.277,12.862h-7.351l-3.957-10.272c-0.942-2.449-1.79-3.393-4.569-3.393h-2.121v13.665
		h-6.596V178.392z M402.608,192.433h2.168c3.251,0,6.973-0.471,6.973-4.57c0-3.957-3.675-4.287-6.973-4.287h-2.168V192.433z"/>
</g>
</svg>
